<svg width="32" height="28" viewBox="0 0 32 28" fill="none" xmlns="http://www.w3.org/2000/svg">
<path fill-rule="evenodd" clip-rule="evenodd" d="M10.4884 23.8677C11.4801 23.8677 12.2871 24.6733 12.2871 25.665C12.2871 26.6568 11.4801 27.4637 10.4884 27.4637C9.49665 27.4637 8.69104 26.6568 8.69104 25.665C8.69104 24.6733 9.49665 23.8677 10.4884 23.8677ZM26.1564 23.8677C27.1495 23.8677 27.9565 24.6733 27.9565 25.665C27.9565 26.6568 27.1495 27.4637 26.1564 27.4637C25.1646 27.4637 24.359 26.6568 24.359 25.665C24.359 24.6733 25.1646 23.8677 26.1564 23.8677ZM4.54941 0.335207L7.43847 0.835237C7.90378 0.917186 8.25796 1.30332 8.29824 1.77557L8.62465 5.66607L9.8384 5.6666C10.0365 5.66668 10.2324 5.66677 10.4263 5.66686L12.6546 5.66792C12.8323 5.66801 13.0079 5.6681 13.1816 5.66819L15.642 5.66954C15.7966 5.66963 15.9493 5.66972 16.1002 5.66981L17.8243 5.67091C17.9609 5.671 18.0958 5.67109 18.2289 5.67118L19.7454 5.6723C19.8651 5.6724 19.9832 5.67249 20.0997 5.67258L21.422 5.67372C21.526 5.67381 21.6284 5.67391 21.7294 5.67401L22.5985 5.67487C22.6907 5.67497 22.7814 5.67506 22.8708 5.67516L23.8772 5.67633C23.9557 5.67643 24.0329 5.67652 24.1087 5.67662L24.9585 5.67781C25.0243 5.67791 25.089 5.67801 25.1525 5.67811L25.6925 5.67901C25.7491 5.67911 25.8046 5.67921 25.859 5.67931L26.4606 5.68053C26.5066 5.68063 26.5516 5.68074 26.5956 5.68084L26.9658 5.68177C27.0041 5.68187 27.0416 5.68197 27.0781 5.68208L27.475 5.68333C27.5047 5.68343 27.5337 5.68354 27.5619 5.68364L27.7949 5.68459C27.8186 5.6847 27.8416 5.6848 27.8639 5.68491L28.0996 5.6862C28.1167 5.6863 28.1332 5.68641 28.1492 5.68652L28.2777 5.68749C28.2904 5.6876 28.3025 5.68771 28.3142 5.68782L28.4067 5.68881C28.4156 5.68892 28.4242 5.68903 28.4323 5.68914L28.4952 5.69013C28.5011 5.69025 28.5067 5.69036 28.512 5.69047L28.5518 5.69148C28.5555 5.69159 28.5589 5.6917 28.562 5.69181L28.5909 5.69317C28.5926 5.69329 28.5943 5.6934 28.5958 5.69352C28.6093 5.69478 28.6113 5.69501 28.6133 5.69524C29.387 5.80775 30.0676 6.21194 30.5315 6.8342C30.9954 7.45507 31.1899 8.22039 31.0787 8.9871L29.7606 18.096C29.512 19.8294 28.0063 21.1364 26.2562 21.1364H11.0873C9.25802 21.1364 7.70932 19.7086 7.5607 17.8821L6.2884 2.75063L4.19523 2.38949C-1.18479 2.38949 0.107054 0.903302 0.204282 0.335213C1.94052 -0.372432 3.99383 0.246313 4.54941 0.335207ZM9.55975 7.75L8.79966 7.74953L9.63721 17.7112C9.69832 18.4779 10.3247 19.053 11.0901 19.053H26.2535C26.9771 19.053 27.5952 18.514 27.698 17.7987L29.0175 8.68847C29.0481 8.47179 28.9939 8.25511 28.8619 8.0801C28.7314 7.90371 28.5397 7.78981 28.323 7.75925C28.313 7.75964 28.289 7.75999 28.2517 7.7603L28.1007 7.76117C28.0691 7.7613 28.0343 7.76142 27.9965 7.76153L27.2096 7.76273C27.1432 7.76278 27.0742 7.76282 27.0026 7.76285L25.1525 7.76277C25.0493 7.76274 24.9441 7.76269 24.8371 7.76265L22.7257 7.76136C22.5992 7.76127 22.4713 7.76118 22.3421 7.76108L21.1474 7.76012C21.0114 7.76001 20.8742 7.75989 20.7362 7.75977L19.4708 7.75866C19.3278 7.75853 19.1842 7.7584 19.04 7.75827L18.1683 7.75747C18.0221 7.75733 17.8754 7.7572 17.7284 7.75706L16.3982 7.75582C16.2498 7.75568 16.1014 7.75554 15.953 7.7554L15.0632 7.75457C14.9151 7.75444 14.7672 7.7543 14.6195 7.75417L13.7372 7.75336C13.5909 7.75323 13.445 7.7531 13.2996 7.75297L12.0072 7.75186C11.8656 7.75174 11.7248 7.75163 11.5848 7.75151L9.95152 7.75027C9.81971 7.75018 9.68909 7.75009 9.55975 7.75ZM24.0226 10.8001C24.5977 10.8001 25.0644 11.2668 25.0644 11.8419C25.0644 12.4169 24.5977 12.8836 24.0226 12.8836H20.1724C19.596 12.8836 19.1307 12.4169 19.1307 11.8419C19.1307 11.2668 19.596 10.8001 20.1724 10.8001H24.0226Z" fill="black"/>
</svg>
