<svg width="25" height="26" viewBox="0 0 25 26" fill="none" xmlns="http://www.w3.org/2000/svg">
<path fill-rule="evenodd" clip-rule="evenodd" d="M12.0148 0C18.6396 0 24.0283 5.38869 24.0283 12.0135C24.0283 15.1391 22.8288 17.9898 20.866 20.1293L24.7283 23.9835C25.0898 24.345 25.091 24.9297 24.7295 25.2912C24.5494 25.4738 24.3113 25.5639 24.0744 25.5639C23.8388 25.5639 23.6019 25.4738 23.4206 25.2937L19.5116 21.3956C17.4554 23.0424 14.8481 24.0283 12.0148 24.0283C5.38993 24.0283 0 18.6384 0 12.0135C0 5.38869 5.38993 0 12.0148 0ZM12.0148 1.85051C6.41018 1.85051 1.85051 6.40894 1.85051 12.0135C1.85051 17.6181 6.41018 22.1778 12.0148 22.1778C17.6181 22.1778 22.1778 17.6181 22.1778 12.0135C22.1778 6.40894 17.6181 1.85051 12.0148 1.85051Z" fill="black"/>
</svg>
